<svg width="40" height="40" viewBox="0 0 40 40" fill="none" xmlns="http://www.w3.org/2000/svg">
<path d="M40 20C40 31.0456 31.0456 40 20 40C8.95438 40 0 31.0456 0 20C0 8.95438 8.95438 0 20 0C31.0456 0 40 8.95438 40 20Z" fill="#4CC764"/>
<path d="M33.3381 18.8351C33.3381 12.8607 27.3486 7.99995 19.9864 7.99995C12.6248 7.99995 6.63464 12.8607 6.63464 18.8351C6.63464 24.1913 11.3846 28.6768 17.801 29.525C18.2358 29.619 18.8276 29.8117 18.9773 30.1833C19.1118 30.5207 19.0653 31.0497 19.0205 31.3906C19.0205 31.3906 18.8638 32.3327 18.8299 32.5336C18.7716 32.871 18.5615 33.8537 19.9864 33.2535C21.4115 32.653 27.6755 28.7257 30.4766 25.5017C32.4115 23.3796 33.3381 21.2262 33.3381 18.8351Z" fill="white"/>
<path d="M28.8964 22.2849C29.0371 22.2849 29.1512 22.1708 29.1512 22.03V21.0832C29.1512 20.943 29.0365 20.8283 28.8964 20.8283H26.347V19.8449H28.8964C29.0371 19.8449 29.1512 19.7307 29.1512 19.5899V18.643C29.1512 18.5029 29.0365 18.3882 28.8964 18.3882H26.347V17.4049H28.8964C29.0371 17.4049 29.1512 17.2907 29.1512 17.1499V16.203C29.1512 16.0629 29.0365 15.9482 28.8964 15.9482H25.1451C25.0044 15.9482 24.8902 16.0623 24.8902 16.203V22.03C24.8902 22.1708 25.0044 22.2849 25.1451 22.2849H28.8964Z" fill="#4CC764"/>
<path d="M15.0208 22.2849C15.1616 22.2849 15.2758 22.1708 15.2758 22.03V21.0832C15.2758 20.943 15.161 20.8283 15.0208 20.8283H12.4714V16.203C12.4714 16.0629 12.3568 15.9482 12.2165 15.9482H11.2696C11.1288 15.9482 11.0148 16.0623 11.0148 16.203V22.03C11.0148 22.1708 11.1288 22.2849 11.2696 22.2849H15.0208Z" fill="#4CC764"/>
<path d="M17.2789 15.9481H16.3321C16.1913 15.9481 16.0772 16.0623 16.0772 16.203V22.03C16.0772 22.1708 16.1913 22.2849 16.3321 22.2849H17.2789C17.4198 22.2849 17.5339 22.1708 17.5339 22.03V16.203C17.5339 16.0623 17.4198 15.9481 17.2789 15.9481Z" fill="#4CC764"/>
<path d="M23.7251 15.9481H22.7782C22.6375 15.9481 22.5234 16.0623 22.5234 16.203V19.664L19.8574 16.0636C19.8511 16.0544 19.8441 16.0455 19.8369 16.0373C19.8364 16.0366 19.8357 16.036 19.8351 16.0354C19.8302 16.0299 19.8251 16.0245 19.8199 16.0194C19.8182 16.018 19.8165 16.0166 19.815 16.0151C19.8105 16.0111 19.8059 16.0073 19.8011 16.0034C19.7989 16.0018 19.7966 16 19.7942 15.9983C19.79 15.9951 19.7854 15.992 19.7807 15.989C19.7782 15.9873 19.7756 15.9859 19.773 15.9843C19.7684 15.9816 19.7637 15.9789 19.759 15.9766C19.7562 15.9751 19.7536 15.9739 19.7507 15.9725C19.7459 15.9704 19.741 15.9681 19.7359 15.9663C19.7331 15.9651 19.7304 15.9641 19.7276 15.9631C19.7225 15.9613 19.7174 15.9598 19.7121 15.9581C19.7091 15.9573 19.7061 15.9565 19.7031 15.9559C19.698 15.9546 19.693 15.9535 19.6879 15.9525C19.6844 15.9519 19.6807 15.9514 19.6771 15.9509C19.6725 15.9503 19.668 15.9496 19.6634 15.9493C19.6589 15.9489 19.6544 15.9486 19.6496 15.9485C19.6469 15.9485 19.644 15.9481 19.641 15.9481H18.6994C18.5585 15.9481 18.4444 16.0623 18.4444 16.203V22.03C18.4444 22.1708 18.5585 22.2849 18.6994 22.2849H19.6462C19.787 22.2849 19.9011 22.1708 19.9011 22.03V18.5703L22.5705 22.175C22.5889 22.201 22.6114 22.2224 22.6362 22.2393C22.6372 22.24 22.6382 22.2408 22.6391 22.2414C22.6444 22.2448 22.6497 22.248 22.6551 22.2511C22.6576 22.2525 22.66 22.2538 22.6626 22.2551C22.6666 22.2573 22.6707 22.2593 22.675 22.2611C22.6791 22.263 22.6832 22.2648 22.6875 22.2665C22.6902 22.2676 22.6929 22.2685 22.6956 22.2694C22.7014 22.2715 22.7071 22.2735 22.7131 22.275C22.7144 22.2754 22.7156 22.2758 22.7169 22.276C22.7381 22.2816 22.7604 22.2849 22.7835 22.2849H23.7251C23.8659 22.2849 23.98 22.1708 23.98 22.03V16.203C23.98 16.0623 23.8659 15.9481 23.7251 15.9481Z" fill="#4CC764"/>
</svg>
