<svg width="20" height="21" viewBox="0 0 20 21" fill="none" xmlns="http://www.w3.org/2000/svg">
<path d="M16.7716 10.3333C16.7716 12.1291 16.0582 13.8513 14.7884 15.121C13.5186 16.3908 11.7963 17.1042 10.0005 17.1042C8.20476 17.1042 6.48253 16.3908 5.21272 15.121C3.94291 13.8513 3.22953 12.1291 3.22953 10.3333C3.22953 8.5376 3.94291 6.81541 5.21272 5.54563C6.48253 4.27585 8.20476 3.5625 10.0005 3.5625C11.7963 3.5625 13.5186 4.27585 14.7884 5.54563C16.0582 6.81541 16.7716 8.5376 16.7716 10.3333ZM1.66699 10.3333C1.66699 12.5435 2.54499 14.6631 4.10783 16.2259C5.67068 17.7887 7.79035 18.6667 10.0005 18.6667C12.2107 18.6667 14.3304 17.7887 15.8933 16.2259C17.4561 14.6631 18.3341 12.5435 18.3341 10.3333C18.3341 8.1232 17.4561 6.00358 15.8933 4.44078C14.3304 2.87797 12.2107 2 10.0005 2C7.79035 2 5.67068 2.87797 4.10783 4.44078C2.54499 6.00358 1.66699 8.1232 1.66699 10.3333ZM9.21928 5.90625V10.3333C9.21928 10.5938 9.34949 10.8379 9.56759 10.9844L12.6927 13.0677C13.0508 13.3086 13.5358 13.2109 13.7767 12.8496C14.0176 12.4883 13.9199 12.0065 13.5586 11.7656L10.7818 9.91667V5.90625C10.7818 5.47331 10.4335 5.125 10.0005 5.125C9.56759 5.125 9.21928 5.47331 9.21928 5.90625Z" fill="#495057"/>
</svg>
