<svg width="40" height="40" viewBox="0 0 40 40" fill="none" xmlns="http://www.w3.org/2000/svg">
<path d="M21.4398 35.3333C24.557 31.4323 31.6663 21.9774 31.6663 16.6667C31.6663 10.2257 26.4406 5 19.9997 5C13.5587 5 8.33301 10.2257 8.33301 16.6667C8.33301 21.9774 15.4424 31.4323 18.5596 35.3333C19.307 36.263 20.6924 36.263 21.4398 35.3333ZM19.9997 12.7778C21.0311 12.7778 22.0202 13.1875 22.7495 13.9168C23.4788 14.6461 23.8886 15.6353 23.8886 16.6667C23.8886 17.6981 23.4788 18.6872 22.7495 19.4165C22.0202 20.1458 21.0311 20.5556 19.9997 20.5556C18.9683 20.5556 17.9791 20.1458 17.2498 19.4165C16.5205 18.6872 16.1108 17.6981 16.1108 16.6667C16.1108 15.6353 16.5205 14.6461 17.2498 13.9168C17.9791 13.1875 18.9683 12.7778 19.9997 12.7778Z" fill="#E29400"/>
</svg>
