<svg width="20" height="21" viewBox="0 0 20 21" fill="none" xmlns="http://www.w3.org/2000/svg">
<path d="M7.8648 5.939C8.81503 4.42433 9.28977 3.66699 10 3.66699C10.7102 3.66699 11.185 4.42433 12.1352 5.939L12.3812 6.331C12.6512 6.76167 12.7862 6.977 12.9962 7.119C13.2062 7.261 13.4687 7.31367 13.9937 7.419L14.4706 7.515C16.3156 7.88634 17.2373 8.07167 17.4571 8.69901C17.6761 9.32568 17.0476 9.97968 15.7899 11.287L15.4644 11.625C15.1074 11.9964 14.9281 12.1824 14.8479 12.4117C14.7676 12.6417 14.7946 12.8897 14.8486 13.385L14.8981 13.8364C15.0879 15.581 15.1831 16.453 14.6086 16.8404C14.0342 17.2284 13.1702 16.8744 11.4437 16.1677L10.996 15.985C10.5055 15.7837 10.2602 15.6837 10 15.6837C9.73976 15.6837 9.49451 15.7837 9.00402 15.985L8.55703 16.1677C6.82982 16.8744 5.96584 17.2277 5.39211 16.841C4.81687 16.453 4.91212 15.581 5.10187 13.8364L5.15136 13.3857C5.20536 12.8897 5.23236 12.6417 5.15136 12.4124C5.07187 12.1824 4.89262 11.9964 4.53563 11.6257L4.21014 11.287C2.95242 9.98035 2.32393 9.32634 2.54293 8.69901C2.76267 8.07167 3.68515 7.88567 5.53011 7.515L6.00709 7.419C6.53133 7.31367 6.79308 7.261 7.00382 7.119C7.21382 6.977 7.34881 6.76167 7.61881 6.331L7.8648 5.939Z" fill="#FFC107"/>
</svg>
