<svg width="20" height="21" viewBox="0 0 20 21" fill="none" xmlns="http://www.w3.org/2000/svg">
<path d="M12.2105 7.00033C12.2105 6.44779 11.9875 5.91789 11.5906 5.52719C11.1937 5.13649 10.6554 4.91699 10.0941 4.91699C9.53273 4.91699 8.9944 5.13649 8.59749 5.52719C8.20058 5.91789 7.97759 6.44779 7.97759 7.00033C7.97759 7.55286 8.20058 8.08276 8.59749 8.47346C8.9944 8.86417 9.53273 9.08366 10.0941 9.08366C10.6554 9.08366 11.1937 8.86417 11.5906 8.47346C11.9875 8.08276 12.2105 7.55286 12.2105 7.00033ZM6.70772 7.00033C6.70772 6.11627 7.06449 5.26842 7.69955 4.6433C8.33461 4.01818 9.19594 3.66699 10.0941 3.66699C10.9922 3.66699 11.8535 4.01818 12.4886 4.6433C13.1236 5.26842 13.4804 6.11627 13.4804 7.00033C13.4804 7.88438 13.1236 8.73223 12.4886 9.35735C11.8535 9.98247 10.9922 10.3337 10.0941 10.3337C9.19594 10.3337 8.33461 9.98247 7.69955 9.35735C7.06449 8.73223 6.70772 7.88438 6.70772 7.00033ZM5.47224 15.7503H14.7185C14.4831 14.1019 13.0439 12.8337 11.3057 12.8337H8.88767C7.14953 12.8337 5.71034 14.1019 5.47488 15.7503H5.47224ZM4.16797 16.2269C4.16797 13.6618 6.27914 11.5837 8.88503 11.5837H11.3031C13.909 11.5837 16.0201 13.6618 16.0201 16.2269C16.0201 16.654 15.6683 17.0003 15.2344 17.0003H4.9537C4.51983 17.0003 4.16797 16.654 4.16797 16.2269Z" fill="#495057"/>
</svg>
