<svg width="24" height="24" viewBox="0 0 24 24" fill="none" xmlns="http://www.w3.org/2000/svg">
<g clip-path="url(#clip0_37_960)">
<path d="M19.2136 7.24678C19.8154 6.64506 19.8154 5.67279 19.2136 5.07107C18.6119 4.46935 17.6397 4.46935 17.0379 5.07107L12.1426 9.96642L7.24722 5.07107C6.6455 4.46935 5.67323 4.46935 5.07151 5.07107C4.46979 5.67279 4.46979 6.64506 5.07151 7.24678L9.96686 12.1421L5.07151 17.0375C4.46979 17.6392 4.46979 18.6115 5.07151 19.2132C5.67323 19.8149 6.6455 19.8149 7.24722 19.2132L12.1426 14.3178L17.0379 19.2132C17.6397 19.8149 18.6119 19.8149 19.2136 19.2132C19.8154 18.6115 19.8154 17.6392 19.2136 17.0375L14.3183 12.1421L19.2136 7.24678Z" fill="#232529"/>
</g>
<defs>
<clipPath id="clip0_37_960">
<rect width="24" height="24" fill="white"/>
</clipPath>
</defs>
</svg>
